<?xml version="1.0" encoding="UTF-8"?>
<!DOCTYPE svg PUBLIC "-//W3C//DTD SVG 1.1//EN" "http://www.w3.org/Graphics/SVG/1.1/DTD/svg11.dtd">
<!-- Creator: CorelDRAW 2018 (64-Bit) -->
<svg xmlns="http://www.w3.org/2000/svg" xml:space="preserve" width="8.26772in" height="11.6929in" version="1.1" style="shape-rendering:geometricPrecision; text-rendering:geometricPrecision; image-rendering:optimizeQuality; fill-rule:evenodd; clip-rule:evenodd"
viewBox="0 0 8267.72 11692.91"
 xmlns:xlink="http://www.w3.org/1999/xlink">
 <defs>
  <style type="text/css">
   <![CDATA[
    .str0 {stroke:#FEFEFE;stroke-width:6.94;stroke-miterlimit:2.61313}
    .fil3 {fill:none}
    .fil2 {fill:#007FE6}
    .fil1 {fill:#007FE6}
    .fil0 {fill:#007FE6;fill-rule:nonzero}
   ]]>
  </style>
 </defs>
 <g id="Layer_x0020_1">
  <metadata id="CorelCorpID_0Corel-Layer"/>
  <g id="_1715862745664">
   <g>
    <path class="fil0" d="M2336.37 2129.78c0,8.47 -1.47,14.69 -4.39,18.69 -5.08,6.94 -14.79,10.43 -29.09,10.43 -9.53,0 -17.27,-1.52 -23.21,-4.54l3.25 -10.79c7.67,2.17 14.3,3.25 19.96,3.25 7.67,0 12.93,-0.83 15.8,-2.5 3.54,-2.06 5.3,-5.86 5.3,-11.41 0,-3.38 -2.32,-6.38 -6.94,-9.01 -2.48,-1.42 -6.56,-3.33 -12.26,-5.76 -6.25,-2.66 -10.48,-6.14 -12.7,-10.43 -1.86,-3.69 -2.79,-9.24 -2.79,-16.65l13.3 0c0,6.04 1.19,10.33 3.56,12.85 0.7,0.75 3.41,2.3 8.08,4.62 6.56,3.23 11.23,5.96 14.07,8.24 4.62,3.74 7.33,8.08 8.08,13.01z"/>
    <path id="1" class="fil0" d="M2370.04 2189.57c-10.71,0 -18.82,-1.45 -24.37,-4.31l3.25 -10.89c7.64,2.2 14.33,3.28 20.03,3.28 13.84,0 21.58,-6.92 23.19,-20.73l0.31 -11.13c0.21,-6.51 -0.44,-11.23 -1.88,-14.15 -2.17,-4.44 -6.61,-6.66 -13.3,-6.66l0 16.24 -13.48 6.51 0 -58.37 13.48 0 0 22.61c9.89,1.16 16.91,4.44 21.01,9.83 3.69,4.88 5.63,12.39 5.78,22.54l0 11.49c0.1,8.88 -2.37,16.42 -7.41,22.61 -6.07,7.41 -14.92,11.13 -26.61,11.13z"/>
    <path id="2" class="fil0" d="M2415.52 2054.2l11.93 0 0 40.89c6.35,-5.06 12.62,-7.59 18.82,-7.59 7.43,0 13.55,1.91 18.38,5.76 5.24,4.19 7.87,9.91 7.87,17.17l0 46 -12.24 0 0 -39.47c0,-4.98 -1.27,-9.06 -3.77,-12.24 -2.76,-3.54 -6.56,-5.3 -11.36,-5.3 -6.09,0 -10.71,2.12 -13.86,6.35 -2.56,3.44 -3.85,7.52 -3.85,12.24l0 38.41 -11.93 0 0 -102.22z"/>
    <path id="3" class="fil0" d="M2488.76 2156.43l0 -46.08c0,-6.84 2.56,-12.26 7.64,-16.31 4.65,-3.74 10.45,-5.6 17.48,-5.6 9.01,0 15.28,2.94 18.77,8.83 4.28,-5.89 10.92,-8.83 19.95,-8.83 6.15,0 11.52,1.68 16.11,5.01 5.14,3.69 7.72,8.49 7.72,14.41l0 48.58 -11.93 0 0 -44.27c0,-3.12 -1.21,-6.07 -3.67,-8.78 -2.45,-2.74 -5.22,-4.11 -8.29,-4.11 -3.72,0 -6.89,1.44 -9.52,4.36 -2.61,2.89 -3.93,6.22 -3.93,9.96l0 25.79 -11.93 0 0 -24.73c0,-10.25 -4.44,-15.39 -13.32,-15.39 -8.78,0.85 -13.17,6.35 -13.17,16.44l0 40.71 -11.93 0z"/>
    <path id="4" class="fil0" d="M2602.52 2079.6l-14.48 0c1.68,-7.77 5.65,-14.02 11.98,-18.77 6.09,-4.62 13.19,-6.94 21.27,-6.94 8.62,0 16.24,2.48 22.8,7.41 8.49,6.35 12.73,15.49 12.73,27.44l0 38.41c0,9.06 -3.38,16.65 -10.12,22.74 -6.5,5.91 -14.35,8.85 -23.52,8.85 -8.42,0 -15.93,-2.56 -22.59,-7.64 -8.37,-6.41 -12.55,-15.57 -12.55,-27.52 0,-10.84 3,-19.36 8.96,-25.56 5.99,-6.19 14.35,-9.29 25.15,-9.29 7.67,0 13.45,1.44 17.32,4.31l0 13.01c-4.44,-3.59 -9.86,-5.4 -16.26,-5.4 -6.51,0 -11.93,1.78 -16.26,5.37 -4.65,3.9 -6.97,9.01 -6.97,15.36 0,7.52 1.96,13.58 5.89,18.18 4.18,4.83 9.96,7.25 17.32,7.25 6.5,0 11.69,-2.71 15.57,-8.11 3.48,-4.78 5.21,-10.56 5.21,-17.3l0 -30.49c0,-7.41 -1.88,-13.4 -5.68,-17.94 -4.06,-4.88 -9.71,-7.33 -16.99,-7.33 -8.83,0 -15.1,4.65 -18.77,13.94z"/>
    <path id="5" class="fil0" d="M2699.89 2067.03c2.76,-8.65 7.9,-12.98 15.41,-12.98 7.57,0 12.73,2.69 15.49,8.08 1.78,3.43 2.66,8.31 2.66,14.66l0 47.7c0,7.31 -2.43,14.35 -7.26,21.09 -6.22,8.68 -14.74,13.01 -25.58,13.01l-1.29 0c-11.54,0 -20.37,-3.72 -26.46,-11.18 -5.06,-6.2 -7.57,-13.73 -7.57,-22.61l-0.31 -1.81c0,-10.33 3.56,-18.69 10.66,-25.09 6.09,-5.5 12.8,-8.24 20.11,-8.24 5.6,0 10.04,0.44 13.32,1.29 2.22,0.54 4.39,1.57 6.51,3.1l0 13.14c-5.09,-3.74 -11.23,-5.6 -18.38,-5.6 -5.99,0 -10.94,2.27 -14.82,6.81 -3.69,4.34 -5.52,9.55 -5.52,15.65l0.39 1.81c1.55,13.86 9.3,20.81 23.21,20.81 13.01,0 19.52,-9.04 19.52,-27.11l0 -43.11c0,-7.2 -2.56,-10.79 -7.64,-10.79 -4.54,0 -6.79,3.51 -6.79,10.53l-11.44 0c0,-2.58 -0.65,-4.91 -1.96,-6.94 -1.52,-2.4 -3.51,-3.59 -5.96,-3.59 -2.43,0 -4.41,1.21 -5.99,3.64 -1.37,2.17 -2.04,4.52 -2.04,7.05l0 4.33 -11.93 0 0 -3.72c0,-15.28 6.04,-22.93 18.15,-22.93 5.34,0 9.19,1.42 11.57,4.26 1.16,1.39 2.48,4.31 3.95,8.72z"/>
    <path id="6" class="fil0" d="M2760.04 2116.8l-11.95 0c0,-8.62 2.81,-15.57 8.47,-20.81 5.45,-5.03 12.55,-7.56 21.27,-7.56 6.2,0 11.85,1.68 16.96,5.06 7.1,4.75 10.66,11.59 10.66,20.5l0 42.44c0,10.3 -3.54,18.43 -10.58,24.45 -6.61,5.6 -15.18,8.39 -25.66,8.39 -9.45,0 -17.17,-1.5 -23.23,-4.47l3.25 -10.89c7.59,2.2 14.22,3.28 19.9,3.28 6.12,0 11.36,-1.6 15.7,-4.78 4.78,-3.59 7.15,-8.34 7.15,-14.3l0 -40.27c0,-5.09 -1.24,-9.19 -3.72,-12.34 -2.66,-3.43 -6.5,-5.13 -11.49,-5.13 -4.7,0 -8.54,1.6 -11.59,4.78 -2.81,2.97 -4.52,6.87 -5.14,11.67z"/>
    <path id="7" class="fil0" d="M2816.76 2079.26c0,-9.14 2.94,-15.74 8.85,-19.82 3.97,-2.76 8.85,-4.16 14.58,-4.16l40.4 0 0 11.93 -36.99 0c-8.85,0 -13.32,5.22 -13.37,15.65l0 35.16c-0.1,19.11 6.4,28.66 19.54,28.66 13.17,0 20.94,-6.94 23.26,-20.81l0.28 -1.81c0,-6.09 -1.83,-11.28 -5.5,-15.57 -3.85,-4.59 -8.75,-6.89 -14.76,-6.89 -7,0 -13.17,1.86 -18.46,5.6l0 -13.14c4.29,-2.92 10.9,-4.39 19.83,-4.39 7.41,0 14.12,2.69 20.11,8.08 7.18,6.46 10.74,14.87 10.74,25.25l-0.28 1.81c0,8.98 -2.5,16.52 -7.49,22.61 -6.12,7.46 -14.97,11.18 -26.64,11.18l-1.21 0c-10.79,0 -19.31,-4.33 -25.56,-13.01 -4.88,-6.81 -7.33,-13.83 -7.33,-21.09l0 -45.23z"/>
    <path id="8" class="fil0" d="M3001.74 2101.59l1.06 -11.95c7.41,0 14.09,2.71 20.08,8.11 7.15,6.4 10.71,14.82 10.71,25.25l0 1.81c0,8.98 -2.5,16.5 -7.48,22.61 -6.09,7.46 -14.95,11.18 -26.59,11.18l-1.21 0c-10.77,0 -19.28,-4.33 -25.53,-13.01 -4.88,-6.81 -7.33,-13.83 -7.33,-21.09l0 -69.21 13.47 0 0 62.7c0,19.13 6.51,28.68 19.52,28.68 13.17,0 20.91,-6.94 23.24,-20.81l0.31 -1.81c0,-6.09 -1.83,-11.28 -5.5,-15.57 -3.85,-4.59 -8.75,-6.89 -14.74,-6.89z"/>
    <path id="9" class="fil0" d="M3058.33 2116.8l-11.95 0c0,-8.62 2.81,-15.57 8.47,-20.81 5.45,-5.03 12.55,-7.56 21.27,-7.56 6.2,0 11.85,1.68 16.96,5.06 7.1,4.75 10.66,11.59 10.66,20.5l0 42.44c0,10.3 -3.54,18.43 -10.58,24.45 -6.61,5.6 -15.18,8.39 -25.66,8.39 -9.45,0 -17.17,-1.5 -23.23,-4.47l3.25 -10.89c7.59,2.2 14.22,3.28 19.9,3.28 6.12,0 11.36,-1.6 15.7,-4.78 4.78,-3.59 7.15,-8.34 7.15,-14.3l0 -40.27c0,-5.09 -1.24,-9.19 -3.72,-12.34 -2.66,-3.43 -6.5,-5.13 -11.49,-5.13 -4.7,0 -8.54,1.6 -11.59,4.78 -2.81,2.97 -4.52,6.87 -5.14,11.67z"/>
    <path id="10" class="fil0" d="M3116.44 2054.2l11.93 0 0 40.89c6.35,-5.06 12.62,-7.59 18.82,-7.59 7.43,0 13.55,1.91 18.38,5.76 5.24,4.19 7.87,9.91 7.87,17.17l0 46 -12.24 0 0 -39.47c0,-4.98 -1.27,-9.06 -3.77,-12.24 -2.76,-3.54 -6.56,-5.3 -11.36,-5.3 -6.09,0 -10.71,2.12 -13.86,6.35 -2.56,3.44 -3.85,7.52 -3.85,12.24l0 38.41 -11.93 0 0 -102.22z"/>
    <path id="11" class="fil0" d="M3246.98 2113.99l0 4.78c0,2.81 -0.46,5.31 -1.39,7.48 -1.31,3.18 -4.05,7.15 -8.21,11.87 4.13,2.38 6.94,6.15 8.39,11.36 0.8,2.87 1.21,6.64 1.21,11.26 0,8.5 -3.35,15.46 -10.07,20.96 -5.5,4.49 -14.02,7 -25.56,7.56l-3.1 0.15c-6.76,0.36 -13.48,-1.19 -20.14,-4.62l3.26 -10.89c7.61,2.2 14.28,3.28 19.98,3.28 6.14,0 11.25,-1.65 15.28,-4.98 4.03,-3.33 6.58,-8.03 7.64,-14.07 0,-8.78 -3.1,-13.17 -9.29,-13.17l-12.39 0 0 -11.62 8.6 0c8.21,0 12.31,-5.16 12.31,-15.51 0,-5.09 -1.24,-9.22 -3.72,-12.34 -2.69,-3.43 -6.53,-5.13 -11.54,-5.13 -4.7,0 -8.57,1.6 -11.61,4.78 -2.84,2.97 -4.54,6.87 -5.17,11.67l-11.98 0c0,-8.62 2.81,-15.57 8.49,-20.81 5.45,-5.03 12.57,-7.56 21.32,-7.56 6.2,0 11.87,1.68 16.99,5.06 7.12,4.75 10.69,11.59 10.69,20.5z"/>
    <path id="12" class="fil0" d="M3261.36 2156.43l0 -40.63c0,-8.68 2.81,-15.59 8.47,-20.73 5.44,-5.03 12.52,-7.56 21.24,-7.56 6.15,0 11.75,1.68 16.78,5.06 7,4.7 10.51,11.52 10.51,20.44l0 43.42 -13.17 0 0 -39.47c0,-5.09 -1.24,-9.19 -3.72,-12.31 -2.71,-3.48 -6.53,-5.22 -11.49,-5.22 -4.67,0 -8.55,1.57 -11.57,4.75 -2.81,3 -4.54,6.87 -5.14,11.64l0 40.61 -11.93 0z"/>
    <path id="13" class="fil0" d="M3367.02 2101.59l1.06 -11.95c7.41,0 14.09,2.71 20.08,8.11 7.15,6.4 10.71,14.82 10.71,25.25l0 1.81c0,8.98 -2.5,16.5 -7.48,22.61 -6.09,7.46 -14.95,11.18 -26.59,11.18l-1.21 0c-10.77,0 -19.28,-4.33 -25.53,-13.01 -4.88,-6.81 -7.33,-13.83 -7.33,-21.09l0 -69.21 13.47 0 0 62.7c0,19.13 6.51,28.68 19.52,28.68 13.17,0 20.91,-6.94 23.24,-20.81l0.31 -1.81c0,-6.09 -1.83,-11.28 -5.5,-15.57 -3.85,-4.59 -8.75,-6.89 -14.74,-6.89z"/>
    <path id="14" class="fil0" d="M3491.65 2153.04c0,6.4 1.42,11.72 4.23,15.98 3.67,5.52 9.29,8.31 16.83,8.31 14.56,0 21.84,-8.1 21.84,-24.29 0,-6.92 -1.91,-12.29 -5.73,-16.11 -3.85,-3.85 -9.19,-5.76 -16.11,-5.76 -7.1,0 -12.55,2.43 -16.39,7.25 -3.12,4 -4.67,8.85 -4.67,14.61zm-5.58 -44.94l0 -19.98 11.13 0c6.28,0 11.44,1.91 15.54,5.76 5.65,5.24 8.28,12.7 7.87,22.38l-0.16 3.8c8.7,1.55 15.52,5.47 20.39,11.72 4.67,6.04 7.02,13.58 7.02,22.61 0,8.67 -2.74,16.37 -8.24,23.08 -6.4,7.87 -14.66,11.8 -24.78,11.8 -11.46,0 -20.34,-3.2 -26.69,-9.58 -6.35,-6.37 -9.52,-15.26 -9.52,-26.64 0,-8.93 2.74,-16.5 8.21,-22.69 5.47,-6.22 12.65,-9.81 21.5,-10.82 0,-5.6 -0.54,-9.7 -1.65,-12.34 -2.01,-4.8 -5.89,-7.18 -11.64,-7.18l0 8.08 -8.98 0z"/>
    <path id="15" class="fil0" d="M3559 2054.2l11.93 0 0 40.89c6.35,-5.06 12.62,-7.59 18.82,-7.59 7.43,0 13.55,1.91 18.38,5.76 5.24,4.19 7.87,9.91 7.87,17.17l0 46 -12.24 0 0 -39.47c0,-4.98 -1.27,-9.06 -3.77,-12.24 -2.76,-3.54 -6.56,-5.3 -11.36,-5.3 -6.09,0 -10.71,2.12 -13.86,6.35 -2.56,3.44 -3.85,7.52 -3.85,12.24l0 38.41 -11.93 0 0 -102.22z"/>
    <path id="16" class="fil0" d="M3675.3 2108.59c0,-5.7 -2.94,-8.54 -8.85,-8.54 -3.13,0 -7.02,1.63 -11.67,4.88 -4.67,3.25 -8.11,4.88 -10.33,4.88 -7.98,0 -13.83,-4.08 -17.63,-12.21l5.65 -8.7c3.07,6.51 7.05,9.76 11.93,9.76 1.76,0 5.11,-1.63 10.04,-4.88 4.93,-3.25 9.24,-4.88 12.98,-4.88 4.31,0 8.7,1.6 13.11,4.78 5.44,3.87 8.13,8.6 8.08,14.12l0 12.42 0 36.22c0,10.3 -3.54,18.43 -10.58,24.45 -6.61,5.6 -15.15,8.39 -25.66,8.39 -9.32,0 -17.09,-1.5 -23.28,-4.47l3.25 -10.89c7.67,2.2 14.35,3.28 20.03,3.28 6.22,0 11.46,-1.6 15.75,-4.78 4.78,-3.51 7.18,-8.29 7.18,-14.28l0 -49.54z"/>
    <path id="17" class="fil0" d="M3759.89 2130.12c0,5.76 -1.91,11.13 -5.76,16.13 -6.14,8.03 -16.31,12.03 -30.48,12.03 -9.63,0 -17.37,-1.5 -23.24,-4.46l3.26 -10.84c7.61,2.14 14.28,3.23 19.98,3.23 15.28,0 22.92,-4.8 22.92,-14.43 0,-11.23 -4.59,-16.85 -13.78,-16.85l-7.13 0 0 -11 12.6 0c2.22,0 4.28,-1.26 6.2,-3.77 1.83,-2.32 2.74,-4.65 2.74,-6.97 0,-2.97 -2.12,-5.4 -6.35,-7.26 -2.12,-0.9 -7.41,-2.5 -15.83,-4.78 -5.91,-1.55 -10.63,-4.67 -14.2,-9.35 -3.56,-4.65 -5.34,-10.07 -5.34,-16.21l13.04 0c0,6.92 3.46,11.46 10.43,13.63 1.86,0.49 4.98,1.37 9.32,2.63 7.36,2.17 12.52,4.41 15.44,6.74 4.34,3.38 6.5,8.26 6.5,14.61 -0.57,3.82 -1.83,7.33 -3.8,10.51 -2.32,3.69 -5.13,6.04 -8.41,7.05 7.93,3.43 11.9,9.89 11.9,19.36z"/>
    <path id="18" class="fil0" d="M3774.48 2156.43l0 -40.63c0,-8.68 2.81,-15.59 8.47,-20.73 5.44,-5.03 12.52,-7.56 21.24,-7.56 6.15,0 11.75,1.68 16.78,5.06 7,4.7 10.51,11.52 10.51,20.44l0 43.42 -13.17 0 0 -39.47c0,-5.09 -1.24,-9.19 -3.72,-12.31 -2.71,-3.48 -6.53,-5.22 -11.49,-5.22 -4.67,0 -8.55,1.57 -11.57,4.75 -2.81,3 -4.54,6.87 -5.14,11.64l0 40.61 -11.93 0z"/>
    <path class="fil0" d="M2309.55 2272.89l30.91 0 -15.66 -35.72 -15.25 35.72zm-32.7 41.97l42.98 -99.19 10.33 0 43.54 99.19 -14.67 0 -12.78 -29.19 -42.26 0 -12.61 29.19 -14.54 0z"/>
    <path id="1" class="fil0" d="M2437.03 2249.36l-27.43 29.92 32.94 35.58 -17.86 0 -31.94 -34.88 28.2 -30.62 16.09 0zm-57.8 65.5l0 -99.19 13.07 0 0 99.19 -13.07 0z"/>
    <path id="2" class="fil0" d="M2449.06 2314.85l0 -65.5 13.07 0 0 14.23c3.65,-5.71 6.92,-9.73 9.83,-11.98 2.91,-2.28 6.07,-3.41 9.46,-3.41 2.37,0 4.77,0.54 7.21,1.57 2.44,1.04 5.04,2.64 7.77,4.84l-7.09 11.59c-2.13,-1.84 -4.16,-3.17 -6.1,-3.99 -1.94,-0.82 -3.97,-1.24 -6.1,-1.24 -3.56,0 -6.66,1.48 -9.3,4.45 -2.66,2.98 -4.55,7.12 -5.69,12.42l0 37.01 -13.07 0z"/>
    <path id="3" class="fil0" d="M2512.81 2282.04c0,6.1 2.06,11.3 6.17,15.61 4.11,4.31 9.07,6.46 14.89,6.46 5.76,0 10.72,-2.15 14.86,-6.48 4.14,-4.33 6.2,-9.54 6.2,-15.59 0,-6 -2.06,-11.16 -6.17,-15.47 -4.11,-4.31 -9.07,-6.46 -14.88,-6.46 -5.81,0 -10.77,2.15 -14.89,6.46 -4.11,4.31 -6.17,9.46 -6.17,15.47zm-13.65 0c0,-9.51 3.39,-17.57 10.14,-24.2 6.75,-6.61 15,-9.92 24.74,-9.92 4.6,0 8.98,0.87 13.17,2.59 4.19,1.72 7.91,4.19 11.23,7.41 3.37,3.41 5.91,7.14 7.67,11.2 1.74,4.09 2.61,8.37 2.61,12.93 0,4.5 -0.89,8.86 -2.69,13.12 -1.81,4.26 -4.33,7.99 -7.6,11.16 -3.31,3.24 -7.02,5.71 -11.16,7.36 -4.14,1.67 -8.54,2.49 -13.24,2.49 -9.73,0 -17.98,-3.31 -24.74,-9.93 -6.76,-6.63 -10.14,-14.69 -10.14,-24.2z"/>
    <polygon id="4" class="fil0" points="2583.41,2314.85 2583.41,2215.67 2595.75,2215.67 2631.45,2257.32 2667.2,2215.67 2679.54,2215.67 2679.54,2314.85 2665.74,2314.85 2665.74,2237.43 2631.45,2277.39 2597.2,2237.43 2597.2,2314.85 "/>
    <path id="5" class="fil0" d="M2694.23 2310.38l0 -13.97c3.92,2.59 7.7,4.57 11.33,5.93 3.65,1.38 6.97,2.06 10,2.06 3.36,0 5.98,-0.63 7.89,-1.89 1.91,-1.24 2.88,-2.95 2.88,-5.13 0,-2.73 -3.56,-5.88 -10.7,-9.41 -2.08,-1.04 -3.68,-1.86 -4.81,-2.47 -6.12,-3.12 -10.31,-6.15 -12.59,-9.05 -2.28,-2.91 -3.41,-6.46 -3.41,-10.67 0,-5.47 1.96,-9.83 5.88,-13.05 3.92,-3.22 9.32,-4.81 16.17,-4.81 3.7,0 7.24,0.43 10.65,1.31 3.39,0.87 6.73,2.22 10,4.06l0 12.78c-4.02,-2.22 -7.7,-3.87 -11.01,-4.94 -3.34,-1.06 -6.49,-1.6 -9.46,-1.6 -2.74,0 -4.84,0.48 -6.34,1.43 -1.48,0.94 -2.22,2.3 -2.22,4.11 0,3.29 4.55,7.21 13.67,11.69l1.21 0.58c7.14,3.58 11.79,6.75 13.94,9.46 2.18,2.74 3.26,6.17 3.26,10.33 0,5.78 -2.15,10.38 -6.48,13.84 -4.31,3.46 -10.04,5.18 -17.19,5.18 -4.09,0 -8.01,-0.48 -11.71,-1.43 -3.7,-0.94 -7.36,-2.39 -10.94,-4.35z"/>
    <path id="6" class="fil0" d="M2753.33 2314.85l0 -99.19 13.07 0 0 41.65c3.27,-3.12 6.51,-5.37 9.76,-6.83 3.24,-1.43 6.73,-2.15 10.45,-2.15 7.14,0 12.78,2.06 16.89,6.17 4.11,4.09 6.17,9.75 6.17,16.92l0 43.42 -13.22 0 0 -40.08c0,-5.35 -1.09,-9.27 -3.29,-11.78 -2.2,-2.5 -5.64,-3.75 -10.31,-3.75 -3.46,0 -6.48,0.65 -9.07,1.98 -2.61,1.33 -5.06,3.46 -7.38,6.39l0 47.24 -13.07 0z"/>
    <path id="7" class="fil0" d="M2883.31 2307.93c-4.35,2.78 -8.81,4.89 -13.43,6.29 -4.6,1.38 -9.37,2.08 -14.28,2.08 -10.33,0 -18.59,-3.2 -24.76,-9.61 -6.17,-6.41 -9.24,-14.96 -9.24,-25.65 0,-9.78 2.98,-17.74 8.91,-23.84 5.93,-6.1 13.65,-9.15 23.21,-9.15 9.44,0 16.94,3.1 22.46,9.3 5.54,6.2 8.3,14.55 8.3,25.1l0 1.91 -49.08 0c0.39,6.2 2.42,11.04 6.1,14.52 3.68,3.48 8.62,5.22 14.81,5.22 4.16,0 8.49,-0.77 13.02,-2.3 4.5,-1.55 9.17,-3.87 13.99,-6.99l0 13.12zm-47.92 -32.87l34.71 0c-0.44,-4.79 -2.15,-8.61 -5.18,-11.5 -3.02,-2.88 -6.83,-4.33 -11.35,-4.33 -5.01,0 -9.07,1.33 -12.15,4.02 -3.07,2.66 -5.08,6.61 -6.03,11.81z"/>
    <path id="8" class="fil0" d="M2896.65 2314.85l0 -65.5 13.07 0 0 7.96c3.27,-3.1 6.51,-5.37 9.76,-6.83 3.24,-1.43 6.73,-2.15 10.46,-2.15 7.09,0 12.68,2.06 16.77,6.17 4.09,4.09 6.15,9.75 6.15,16.92l0 43.42 -13.07 0 0 -40.08c0,-5.3 -1.11,-9.22 -3.37,-11.74 -2.25,-2.54 -5.74,-3.8 -10.46,-3.8 -3.36,0 -6.29,0.65 -8.83,1.96 -2.52,1.28 -4.98,3.44 -7.41,6.41l0 47.24 -13.07 0z"/>
    <path id="9" class="fil0" d="M3002.94 2307.11l0 -18.69c4.5,5.15 8.78,8.86 12.87,11.13 4.09,2.25 8.45,3.39 13.07,3.39 4.91,0 8.79,-1.14 11.62,-3.44 2.83,-2.3 4.26,-5.4 4.26,-9.31 0,-3.22 -0.94,-6.05 -2.86,-8.47 -1.91,-2.44 -6.48,-5.95 -13.7,-10.53 -11.23,-7.24 -18.25,-12.85 -21.13,-16.82 -2.86,-3.97 -4.28,-8.71 -4.28,-14.19 0,-7.72 2.73,-14.04 8.18,-19 5.47,-4.94 12.51,-7.41 21.1,-7.41 3.83,0 7.6,0.56 11.33,1.67 3.7,1.11 7.45,2.83 11.23,5.15l0 16.12c-4.35,-3.51 -8.35,-6.05 -12.05,-7.65 -3.68,-1.57 -7.36,-2.37 -11.04,-2.37 -4.45,0 -8.08,1.09 -10.89,3.29 -2.81,2.2 -4.21,5.04 -4.21,8.5 0,4.91 5.83,11.01 17.48,18.3l2.13 1.28c9.51,5.91 15.76,11.11 18.69,15.61 2.93,4.52 4.41,10.12 4.41,16.77 0,7.55 -2.74,13.8 -8.23,18.73 -5.49,4.94 -12.51,7.41 -21.08,7.41 -5.35,0 -10.17,-0.75 -14.48,-2.28 -4.31,-1.5 -8.44,-3.9 -12.41,-7.21z"/>
    <path id="10" class="fil0" d="M3130.15 2307.93c-4.35,2.78 -8.81,4.89 -13.43,6.29 -4.6,1.38 -9.37,2.08 -14.28,2.08 -10.33,0 -18.59,-3.2 -24.76,-9.61 -6.17,-6.41 -9.24,-14.96 -9.24,-25.65 0,-9.78 2.98,-17.74 8.91,-23.84 5.93,-6.1 13.65,-9.15 23.21,-9.15 9.44,0 16.94,3.1 22.46,9.3 5.54,6.2 8.3,14.55 8.3,25.1l0 1.91 -49.08 0c0.39,6.2 2.42,11.04 6.1,14.52 3.68,3.48 8.62,5.22 14.81,5.22 4.16,0 8.49,-0.77 13.02,-2.3 4.5,-1.55 9.17,-3.87 13.99,-6.99l0 13.12zm-47.92 -32.87l34.71 0c-0.44,-4.79 -2.15,-8.61 -5.18,-11.5 -3.02,-2.88 -6.83,-4.33 -11.35,-4.33 -5.01,0 -9.07,1.33 -12.15,4.02 -3.07,2.66 -5.08,6.61 -6.03,11.81z"/>
    <path id="11" class="fil0" d="M3143.63 2314.85l0 -65.5 13.07 0 0 14.23c3.65,-5.71 6.92,-9.73 9.83,-11.98 2.91,-2.28 6.07,-3.41 9.46,-3.41 2.37,0 4.77,0.54 7.21,1.57 2.44,1.04 5.04,2.64 7.77,4.84l-7.09 11.59c-2.13,-1.84 -4.16,-3.17 -6.1,-3.99 -1.94,-0.82 -3.97,-1.24 -6.1,-1.24 -3.56,0 -6.66,1.48 -9.3,4.45 -2.66,2.98 -4.55,7.12 -5.69,12.42l0 37.01 -13.07 0z"/>
    <polygon id="12" class="fil0" points="3219.15,2316.16 3187.64,2249.36 3202.13,2249.36 3222.34,2292.8 3241.2,2249.36 3255.45,2249.36 3225.25,2316.16 "/>
    <path id="13" class="fil0" d="M3261.96 2230.05c0,-2.08 0.7,-3.85 2.13,-5.28 1.43,-1.43 3.19,-2.13 5.28,-2.13 2.08,0 3.85,0.7 5.28,2.13 1.43,1.43 2.13,3.2 2.13,5.28 0,2.08 -0.7,3.85 -2.13,5.28 -1.43,1.43 -3.19,2.13 -5.28,2.13 -2.08,0 -3.85,-0.7 -5.28,-2.13 -1.43,-1.43 -2.13,-3.2 -2.13,-5.28zm0.87 84.81l0 -65.5 13.07 0 0 65.5 -13.07 0z"/>
    <path id="14" class="fil0" d="M3344.3 2299.31l0 13.36c-3.31,1.19 -6.51,2.06 -9.63,2.64 -3.12,0.56 -6.22,0.85 -9.29,0.85 -10.67,0 -19.44,-3.2 -26.29,-9.61 -6.85,-6.41 -10.26,-14.59 -10.26,-24.52 0,-9.7 3.44,-17.81 10.29,-24.33 6.85,-6.54 15.44,-9.8 25.73,-9.8 3.17,0 6.29,0.34 9.37,0.99 3.07,0.65 6.1,1.67 9.07,3.05l0 13.96c-3.02,-1.84 -6.03,-3.19 -8.98,-4.06 -2.95,-0.87 -5.98,-1.31 -9.05,-1.31 -6.7,0 -12.2,2.01 -16.43,6.02 -4.24,4.02 -6.34,9.17 -6.34,15.47 0,6.44 2.15,11.67 6.46,15.71 4.28,4.04 9.94,6.07 16.92,6.07 3.22,0 6.37,-0.37 9.41,-1.11 3.05,-0.73 6.05,-1.86 9.03,-3.39z"/>
    <path id="15" class="fil0" d="M3414.44 2307.93c-4.35,2.78 -8.81,4.89 -13.43,6.29 -4.6,1.38 -9.37,2.08 -14.28,2.08 -10.33,0 -18.59,-3.2 -24.76,-9.61 -6.17,-6.41 -9.24,-14.96 -9.24,-25.65 0,-9.78 2.98,-17.74 8.91,-23.84 5.93,-6.1 13.65,-9.15 23.21,-9.15 9.44,0 16.94,3.1 22.46,9.3 5.54,6.2 8.3,14.55 8.3,25.1l0 1.91 -49.08 0c0.39,6.2 2.42,11.04 6.1,14.52 3.68,3.48 8.62,5.22 14.81,5.22 4.16,0 8.49,-0.77 13.02,-2.3 4.5,-1.55 9.17,-3.87 13.99,-6.99l0 13.12zm-47.92 -32.87l34.71 0c-0.44,-4.79 -2.15,-8.61 -5.18,-11.5 -3.02,-2.88 -6.83,-4.33 -11.35,-4.33 -5.01,0 -9.07,1.33 -12.15,4.02 -3.07,2.66 -5.08,6.61 -6.03,11.81z"/>
    <path id="16" class="fil0" d="M3551.22 2266.2l0 41.97c-6.54,2.83 -12.7,4.94 -18.56,6.34 -5.83,1.38 -11.4,2.08 -16.7,2.08 -5.95,0 -11.57,-0.73 -16.82,-2.2 -5.25,-1.45 -10.07,-3.63 -14.48,-6.51 -7.36,-4.84 -13.09,-10.99 -17.19,-18.46 -4.09,-7.5 -6.15,-15.69 -6.15,-24.59 0,-6.66 1.35,-13.12 4.04,-19.39 2.69,-6.24 6.53,-11.74 11.5,-16.41 5.25,-5.06 11.16,-8.81 17.72,-11.28 6.58,-2.44 13.94,-3.68 22.07,-3.68 5.54,0 11.09,0.65 16.63,1.98 5.57,1.33 11.26,3.31 17.06,5.98l0 15.42c-6.29,-3.41 -12.2,-5.93 -17.74,-7.57 -5.52,-1.62 -10.89,-2.44 -16.09,-2.44 -11.59,0 -21.15,3.61 -28.73,10.82 -7.57,7.21 -11.35,16.24 -11.35,27.11 0,10.75 3.73,19.7 11.2,26.91 7.46,7.21 16.85,10.82 28.15,10.82 3.39,0 6.8,-0.36 10.21,-1.09 3.39,-0.75 6.93,-1.87 10.56,-3.39l0 -19.19 -18.59 0 0 -13.22 33.26 0z"/>
    <path id="17" class="fil0" d="M3567.33 2314.85l0 -65.5 13.07 0 0 14.23c3.65,-5.71 6.92,-9.73 9.83,-11.98 2.91,-2.28 6.07,-3.41 9.46,-3.41 2.37,0 4.77,0.54 7.21,1.57 2.44,1.04 5.04,2.64 7.77,4.84l-7.09 11.59c-2.13,-1.84 -4.16,-3.17 -6.1,-3.99 -1.94,-0.82 -3.97,-1.24 -6.1,-1.24 -3.56,0 -6.66,1.48 -9.3,4.45 -2.66,2.98 -4.55,7.12 -5.69,12.42l0 37.01 -13.07 0z"/>
    <path id="18" class="fil0" d="M3631.09 2282.04c0,6.1 2.06,11.3 6.17,15.61 4.11,4.31 9.07,6.46 14.89,6.46 5.76,0 10.72,-2.15 14.86,-6.48 4.14,-4.33 6.2,-9.54 6.2,-15.59 0,-6 -2.06,-11.16 -6.17,-15.47 -4.11,-4.31 -9.07,-6.46 -14.88,-6.46 -5.81,0 -10.77,2.15 -14.89,6.46 -4.11,4.31 -6.17,9.46 -6.17,15.47zm-13.65 0c0,-9.51 3.39,-17.57 10.14,-24.2 6.75,-6.61 15,-9.92 24.74,-9.92 4.6,0 8.98,0.87 13.17,2.59 4.19,1.72 7.91,4.19 11.23,7.41 3.37,3.41 5.91,7.14 7.67,11.2 1.74,4.09 2.61,8.37 2.61,12.93 0,4.5 -0.89,8.86 -2.69,13.12 -1.81,4.26 -4.33,7.99 -7.6,11.16 -3.31,3.24 -7.02,5.71 -11.16,7.36 -4.14,1.67 -8.54,2.49 -13.24,2.49 -9.73,0 -17.98,-3.31 -24.74,-9.93 -6.76,-6.63 -10.14,-14.69 -10.14,-24.2z"/>
    <path id="19" class="fil0" d="M3742.2 2306.82c-3.27,3.15 -6.51,5.42 -9.76,6.87 -3.24,1.45 -6.73,2.18 -10.45,2.18 -7.14,0 -12.78,-2.06 -16.9,-6.17 -4.11,-4.12 -6.17,-9.76 -6.17,-16.92l0 -43.42 13.21 0 0 40.11c0,5.28 1.11,9.2 3.37,11.72 2.25,2.54 5.74,3.8 10.46,3.8 3.36,0 6.29,-0.65 8.83,-1.94 2.52,-1.31 4.98,-3.46 7.41,-6.49l0 -47.2 13.07 0 0 65.5 -13.07 0 0 -8.04z"/>
    <path id="20" class="fil0" d="M3785.33 2263.71l0 36.72c2.13,1.57 4.28,2.71 6.48,3.46 2.2,0.73 4.55,1.09 7.04,1.09 6.66,0 11.91,-2.04 15.73,-6.13 3.83,-4.09 5.74,-9.7 5.74,-16.84 0,-7.09 -1.91,-12.66 -5.74,-16.7 -3.82,-4.04 -9.07,-6.07 -15.73,-6.07 -2.49,0 -4.84,0.36 -7.04,1.06 -2.2,0.7 -4.35,1.84 -6.48,3.41zm-13.22 84.11l0 -98.46 13.22 0 0 3.66c2.47,-1.74 5.06,-3.03 7.79,-3.87 2.76,-0.82 5.79,-1.23 9.08,-1.23 9.46,0 17.19,3.17 23.14,9.51 5.95,6.34 8.93,14.54 8.93,24.61 0,10.07 -2.98,18.27 -8.93,24.61 -5.95,6.34 -13.67,9.51 -23.14,9.51 -3.39,0 -6.46,-0.39 -9.17,-1.19 -2.71,-0.78 -5.28,-2.01 -7.7,-3.73l0 36.57 -13.22 0z"/>
    <path class="fil1" d="M3055.58 1361.19c111.13,0 211.67,45.31 284.18,118.45l-34.5 28.88 -8.39 7.02c-64.61,-56.13 -148.98,-90.12 -241.29,-90.12 -92.31,0 -176.68,33.98 -241.29,90.12l-42.89 -35.9c72.51,-73.14 173.06,-118.45 284.19,-118.45zm-256.46 168.31c-68.84,66.89 -111.62,160.44 -111.62,264l0 0.62 -30.8 0c-0.87,-10.79 -1.32,-21.71 -1.32,-32.73 0,-102.52 38.57,-196.02 101.97,-266.83l35.69 29.87 6.07 5.08zm-111.44 275.67c2.23,71.55 24.89,137.94 62.32,193.56l-16.65 0c-40.84,-55.34 -67.77,-121.58 -75.61,-193.56l29.93 0zm666.11 -310.62c63.4,70.8 101.97,164.31 101.97,266.83 0,11.02 -0.44,21.94 -1.32,32.73l-30.8 0 0 -0.62c0,-103.56 -42.78,-197.11 -111.63,-264l41.76 -34.95zm99.6 310.62c-7.83,71.98 -34.76,138.22 -75.6,193.56l-16.65 0c37.44,-55.62 60.09,-122.01 62.33,-193.56l29.93 0z"/>
    <path class="fil1" d="M3055.58 1537.1c161.17,0 291.83,130.66 291.83,291.83 0,63.34 -20.19,121.96 -54.48,169.79l-12.35 0c27.44,-42.1 43.4,-92.37 43.4,-146.37 0,-148.24 -120.17,-268.42 -268.41,-268.42 -148.24,0 -268.42,120.18 -268.42,268.42 0,54 15.96,104.28 43.41,146.37l-12.35 0c-34.29,-47.83 -54.48,-106.45 -54.48,-169.79 0,-161.18 130.66,-291.83 291.83,-291.83z"/>
    <path class="fil2" d="M2904.78 1808.33l298.84 0 0 131.48 -31.24 1.19c-1.19,14.79 11.31,14.04 31.24,14.66l0 33.07c0,5.1 -4.18,9.28 -9.28,9.28l-204.06 0 0 -55.46 -40.69 0 0 55.46 -35.54 0c-5.1,0 -9.28,-4.17 -9.28,-9.28l0 -168.91 281.44 0 0 -4.85 -281.44 0 0 -6.64zm41.96 42.28l46.39 0 0 39.38 -46.39 0 0 -39.38zm0.16 81.27l48.15 0 3.52 6.74 -57.24 0 5.58 -6.74zm237.22 -71.97c-6.63,-2.74 -23.42,-4.8 -32,-3.04 -0.61,0.12 -2.09,-0.68 0.83,-4.65 5.35,-7.29 22.14,-10.57 27.7,-6.65 5.56,3.92 3.46,12.55 3.47,14.35zm-110.26 -9.3l46.39 0 0 39.38 -46.39 0 0 -39.38zm0 83.51l46.39 0 0 39.38 -46.39 0 0 -39.38z"/>
    <polygon class="fil1" points="2967.43,1847.38 2972.44,1847.38 2972.44,1893.23 2967.43,1893.23 "/>
    <polygon class="fil1" points="3094.56,1847.38 3099.56,1847.38 3099.56,1893.23 3094.56,1893.23 "/>
    <polygon class="fil1" points="3094.56,1930.89 3099.56,1930.89 3099.56,1976.74 3094.56,1976.74 "/>
    <path class="fil1" d="M3278.37 1814.97l-445.58 0 20.45 -9.8 35.33 0 334.01 0 35.33 0 20.45 9.8zm-402.08 -20.86l179.29 -85.95 179.29 85.95 -32.18 0 -147.11 -81.73 -147.11 81.73 -32.18 0z"/>
   </g>
   <rect class="fil3 str0" x="1982.65" y="1060.75" width="2145.83" height="1587.5"/>
  </g>
 </g>
</svg>
